<?xml version="1.0" encoding="UTF-8" standalone="no"?>
<svg
   version="1.2"
   viewBox="0 0 180 180"
   width="180"
   height="180"
   id="svg8"
   sodipodi:docname="logo.svg"
   inkscape:version="1.1.1 (3bf5ae0d25, 2021-09-20)"
   xmlns:inkscape="http://www.inkscape.org/namespaces/inkscape"
   xmlns:sodipodi="http://sodipodi.sourceforge.net/DTD/sodipodi-0.dtd"
   xmlns="http://www.w3.org/2000/svg"
   xmlns:svg="http://www.w3.org/2000/svg">
  <defs
     id="defs12" />
  <sodipodi:namedview
     id="namedview10"
     pagecolor="#ffffff"
     bordercolor="#666666"
     borderopacity="1.0"
     inkscape:pageshadow="2"
     inkscape:pageopacity="0.0"
     inkscape:pagecheckerboard="0"
     showgrid="false"
     inkscape:zoom="2.9388889"
     inkscape:cx="90"
     inkscape:cy="90.170132"
     inkscape:window-width="1366"
     inkscape:window-height="700"
     inkscape:window-x="0"
     inkscape:window-y="0"
     inkscape:window-maximized="1"
     inkscape:current-layer="svg8" />
  <title
     id="title2">Nuevo proyecto</title>
  <style
     id="style4">
		tspan { white-space:pre }
		.shp0 { fill: #000000 } 
	</style>
  <g
     id="layer1"
     style="fill:#ffffff">
    <path
       id="path21"
       fill-rule="evenodd"
       class="shp0"
       d="M17.82 173.44C17.59 173.42 16.97 171.49 16.97 170.79C16.97 170.13 17.08 169.99 17.6 169.99C18.12 169.99 18.25 170.16 18.39 171.04C18.69 172.91 20.82 173.58 22.17 172.22C22.74 171.65 22.83 171.38 22.7 170.57C22.51 169.38 21.86 168.82 20 168.23C17.95 167.59 17.1 166.61 17.12 164.94C17.15 163.28 17.83 162.31 19.32 161.83C20.77 161.36 22.14 161.63 23.1 162.58C24.1 163.59 24.16 164.97 23.21 164.97C22.71 164.97 22.53 164.79 22.39 164.17C21.94 162.12 18.56 162.54 18.56 164.64C18.56 165.81 19.22 166.45 21.16 167.2C23.32 168.02 24.03 168.7 24.25 170.13C24.65 172.86 21.79 174.87 18.96 173.83C18.37 173.61 17.86 173.44 17.82 173.44ZM36.97 173.54C36.89 173.31 36.81 170.76 36.81 167.88C36.81 164.99 36.89 162.44 36.97 162.21C37.06 161.98 37.42 161.79 37.76 161.79C38.37 161.79 38.39 161.84 38.46 164.68L38.53 167.56L40.6 164.68C42.44 162.1 42.75 161.79 43.46 161.79C44.38 161.79 44.44 161.64 42.32 164.55C41.47 165.7 40.78 166.76 40.78 166.89C40.78 167.03 41.62 168.61 42.64 170.41C43.65 172.21 44.49 173.74 44.49 173.82C44.49 173.9 44.14 173.96 43.73 173.96C43.03 173.96 42.82 173.7 41.32 171.03L39.68 168.1L39.04 168.96C38.49 169.71 38.4 170.13 38.4 171.9C38.4 173.9 38.38 173.96 37.77 173.96C37.42 173.96 37.06 173.77 36.97 173.54L36.97 173.54ZM55.6 173.63C55.6 173.45 56.34 170.71 57.25 167.55L58.91 161.79L59.88 161.79C60.58 161.79 60.89 161.92 60.99 162.25C61.37 163.55 64.07 173.66 64.07 173.8C64.07 173.89 63.71 173.96 63.27 173.96C62.79 173.96 62.48 173.82 62.48 173.61C62.48 173.42 62.29 172.64 62.07 171.88L61.66 170.5L57.88 170.65L57.39 172.31C56.96 173.76 56.82 173.96 56.25 173.96C55.89 173.96 55.6 173.81 55.6 173.63L55.6 173.63ZM60.62 166.35C60.28 165.01 59.93 163.91 59.85 163.91C59.71 163.91 58.25 168.84 58.25 169.29C58.25 169.39 58.97 169.46 59.86 169.46C61.04 169.46 61.45 169.37 61.36 169.13C61.3 168.95 60.96 167.7 60.62 166.35ZM77.3 168.36L77.3 163.11L75.84 163.11C74.46 163.11 74.39 163.08 74.39 162.45L74.39 161.79L81.79 161.79L81.79 162.45C81.79 163.08 81.71 163.11 80.34 163.11L78.88 163.11L78.88 173.96L78.27 173.96C77.93 173.96 77.57 173.88 77.47 173.78C77.38 173.69 77.3 171.25 77.3 168.36ZM94.23 167.88L94.23 161.79L100.31 161.79L100.31 162.44C100.31 163.08 100.26 163.09 98 163.17L95.68 163.25L95.61 165.03C95.52 167.05 95.19 166.84 98.4 166.86C99.96 166.87 100.05 166.9 100.05 167.49C100.05 168.09 99.96 168.12 97.87 168.2L95.68 168.27L95.68 172.51L98.13 172.58C100.54 172.66 100.58 172.67 100.58 173.31L100.58 173.96L94.23 173.96L94.23 167.88ZM113.17 173.54C113.09 173.31 113.01 170.76 113.01 167.88C113.01 164.99 113.09 162.44 113.17 162.21C113.39 161.66 116.87 161.63 118.16 162.17C119.83 162.86 120.45 165.5 119.36 167.29C118.72 168.34 117.93 168.67 116.04 168.67L114.6 168.67L114.6 171.32C114.6 173.93 114.59 173.96 113.97 173.96C113.62 173.96 113.26 173.77 113.17 173.54L113.17 173.54ZM118.31 165.34C118.31 163.72 117.66 163.11 115.92 163.11L114.6 163.11L114.6 167.61L115.76 167.61C116.52 167.61 117.15 167.43 117.61 167.06C118.17 166.62 118.31 166.29 118.31 165.34ZM130.74 173.83C130.74 173.61 133.29 164.68 133.82 163.03C134.22 161.79 134.26 161.76 135.2 161.84L136.17 161.92L137.67 167.48C138.5 170.53 139.18 173.25 139.19 173.52C139.2 173.89 139.04 173.98 138.48 173.91C137.83 173.84 137.72 173.67 137.38 172.18L137 170.52L133.17 170.52L132.68 172.18C132.24 173.63 132.1 173.84 131.46 173.91C131.07 173.96 130.74 173.92 130.74 173.83L130.74 173.83ZM136.56 169.15C136.56 168.74 135.18 163.61 135.09 163.7C134.88 163.93 133.48 169.2 133.6 169.32C133.89 169.61 136.56 169.46 136.56 169.15ZM151.38 167.89L151.38 161.79L153.65 161.79C157.16 161.79 158.26 162.56 158.26 164.99C158.26 166.12 157.69 167.49 157.14 167.68C156.91 167.76 157.01 167.97 157.44 168.32C157.98 168.77 158.1 169.16 158.25 171.09C158.35 172.32 158.52 173.47 158.62 173.65C158.76 173.86 158.57 173.96 158.02 173.96C157.59 173.96 157.16 173.84 157.06 173.69C156.97 173.54 156.83 172.52 156.74 171.44C156.66 170.35 156.45 169.26 156.28 169.02C156.07 168.74 155.43 168.54 154.47 168.46L152.99 168.34L152.91 171.08L152.83 173.83L152.11 173.91L151.38 174L151.38 167.89ZM155.72 167.04C156.56 166.66 157.05 165.31 156.69 164.36C156.35 163.45 155.65 163.11 154.1 163.11C152.86 163.11 152.82 163.14 152.87 163.84C152.9 164.24 152.93 165.19 152.95 165.96L152.97 167.35L154.01 167.35C154.59 167.35 155.36 167.21 155.72 167.04L155.72 167.04ZM171.22 167.7L171.22 161.79L172.81 161.79L172.81 167.71L174.83 164.86C176.92 161.92 177.17 161.69 178.06 161.84C178.52 161.91 178.36 162.24 176.78 164.39L174.98 166.87L176.5 169.55C177.34 171.03 178.22 172.63 178.47 173.1L178.91 173.96L178.12 173.96C177.39 173.96 177.2 173.74 175.69 171.03L174.05 168.11L173.44 168.85C172.91 169.49 172.83 169.9 172.82 171.78C172.81 173.89 172.79 173.96 172.19 173.96C171.85 173.96 171.5 173.88 171.4 173.78C171.3 173.69 171.22 170.95 171.22 167.7ZM32.61 147.49C17.85 139.74 6.56 120.43 2.31 95.64C0.98 87.86 0.72 84.49 0.72 75.01C0.72 64.23 1.36 58.02 3.38 49.47C7.99 29.92 17.47 16.05 30.43 9.88C35.37 7.54 36.72 7.38 58.51 6.59C75.96 5.96 76.87 5.98 80.07 6.86C94.35 10.79 104.63 19.86 112.5 35.45C124.26 58.78 126.1 90.88 117.08 115.44C115.68 119.27 112.26 126.1 110.17 129.27C103.41 139.5 93.23 146.83 82.83 148.95C80.72 149.39 49.49 152.03 47.28 151.96C46.54 151.94 45.59 151.87 45.15 151.81C41.64 151.32 36.62 149.59 32.61 147.49ZM51 130.17C58.49 122.79 63.32 110.51 65.01 94.53C65.61 88.9 65.41 76.87 64.61 71.07C61.23 46.25 49.8 26.19 37.22 23.02C25.99 20.19 13.48 33.86 8.21 54.75C5.09 67.09 4.77 81.36 7.31 93.92C10.2 108.19 16.06 120.34 23.85 128.22C28.01 132.43 32.52 135.12 36.6 135.84C38.58 136.19 41.4 135.93 43.52 135.2C46.32 134.23 48.09 133.04 51 130.17ZM26.43 109.37C24.4 108.35 20.79 104.8 19.04 102.12C13.69 93.89 11.07 82.19 12.22 71.62C13.23 62.34 16.36 54.66 20.99 50.11C24.28 46.86 27.79 46.03 31.28 47.66C37.73 50.68 43.39 61.45 45.15 74.05C45.64 77.54 45.69 81.98 45.26 84C44.53 87.46 42.6 90.03 40.18 90.75C38.59 91.22 29.36 91.31 27.79 90.88C25.7 90.3 23.39 87.43 22.12 83.83C21.35 81.64 21.28 82.45 21.98 85.62C22.7 88.88 23.71 91.68 25.24 94.67C28.41 100.88 32.29 104.32 36.42 104.57C38 104.67 38.45 104.59 39.53 104.04C40.22 103.68 40.78 103.46 40.78 103.55C40.78 103.64 40.17 104.53 39.42 105.53C37.89 107.56 35.93 109.23 34.19 109.98C32.8 110.58 30.44 110.8 29.08 110.45C28.53 110.32 27.34 109.83 26.43 109.37ZM21.38 81.31C21.3 81.1 21.24 81.16 21.22 81.47C21.21 81.75 21.28 81.9 21.36 81.81C21.45 81.73 21.46 81.5 21.38 81.31L21.38 81.31ZM21.12 74.16C21.04 73.95 20.97 74.02 20.96 74.32C20.95 74.6 21.01 74.76 21.1 74.67C21.19 74.58 21.2 74.35 21.12 74.16L21.12 74.16ZM25.65 65.8C26.62 65.26 27.04 65.22 31.35 65.22L36.01 65.22L36.44 64.56C36.81 64 36.82 63.72 36.55 62.59C35.96 60.1 33.49 56.71 31.64 55.83C27.58 53.91 23.45 59.51 21.61 69.41C21.27 71.28 21.06 74.38 21.33 73.55C21.38 73.41 21.67 72.44 21.97 71.4C22.67 69.02 24.27 66.58 25.65 65.8ZM127.57 143.66C127.57 139.12 127.6 138.77 128.08 138.52C128.4 138.34 131.89 138.24 137.59 138.24C146.51 138.24 146.6 138.24 147.14 137.66C147.65 137.11 147.67 136.77 147.67 128.82C147.67 121.66 147.73 120.5 148.09 120.14C148.44 119.79 149.28 119.72 153.12 119.72C157.38 119.72 157.77 119.76 158.26 120.25C158.76 120.76 158.79 121.13 158.79 129.1C158.79 137.4 158.79 137.42 159.38 137.83C159.88 138.18 161.25 138.24 169.02 138.24L178.07 138.24L178.48 138.83C178.82 139.31 178.9 140.26 178.9 143.8C178.9 147.33 178.82 148.29 178.48 148.77L178.07 149.35L153.23 149.35C131.01 149.35 128.35 149.31 127.98 148.94C127.63 148.59 127.57 147.73 127.57 143.66ZM127.89 132.9C127.39 132.4 127.43 111.7 127.93 111.28C128.18 111.07 129.79 111 133.15 111.05L138 111.12L138.34 111.78C138.82 112.73 138.82 131.47 138.34 132.42L138 133.08L133.11 133.15C129.52 133.21 128.13 133.14 127.89 132.9L127.89 132.9ZM167.78 122.1C167.78 115.65 167.88 111.83 168.06 111.5C168.31 111.02 168.66 110.99 173.18 110.99C177.53 110.99 178.06 111.04 178.46 111.47C178.85 111.91 178.9 113.03 178.9 122C178.9 130.66 178.84 132.12 178.48 132.63C178.08 133.2 177.93 133.22 173.2 133.22C168.66 133.22 168.31 133.18 168.06 132.7C167.88 132.38 167.78 128.55 167.78 122.1ZM128 105.48C127.63 105.07 127.57 104.29 127.57 100.24C127.57 96.9 127.66 95.39 127.88 95.17C128.13 94.93 134.1 94.85 153.14 94.85L178.07 94.85L178.48 95.44C178.82 95.91 178.9 96.88 178.9 100.47C178.9 104.55 178.85 104.95 178.37 105.43C177.84 105.96 177.48 105.96 153.14 105.96C129.55 105.96 128.42 105.94 128 105.48ZM127.98 89.41C127.32 88.74 127.38 79.35 128.07 77.15C129.45 72.69 133.83 68.94 139.08 67.72C141.67 67.11 145.44 67.16 148.04 67.84C152.79 69.08 156.52 72.32 158.07 76.55C158.54 77.83 158.64 78.82 158.73 83.28C158.83 87.79 158.78 88.6 158.41 89.17L157.98 89.82L153.24 89.82C147.35 89.82 147.67 90.08 147.67 85.37C147.67 81.74 147.4 80.78 146.04 79.64C144 77.92 141.07 78.37 139.36 80.66C138.88 81.3 138.79 81.89 138.68 85.23C138.56 88.64 138.49 89.12 138.03 89.45C137.24 90.02 128.56 89.99 127.98 89.41L127.98 89.41ZM128.15 62.16C127.58 61.76 127.57 61.61 127.57 56.87C127.57 52.05 127.57 52 128.19 51.59C128.74 51.23 131.64 51.19 153.48 51.26C177.55 51.32 178.15 51.34 178.52 51.84C178.81 52.24 178.9 53.38 178.9 56.81C178.9 61.2 178.88 61.28 178.25 61.92L177.6 62.57L153.17 62.57C131.49 62.57 128.68 62.53 128.15 62.16L128.15 62.16ZM131.6 42.08C128.78 39.46 127.57 36.57 127.57 32.5C127.57 29.49 127.55 29.5 132.88 29.5C136.67 29.5 137.08 29.55 137.72 30.05C138.14 30.38 138.41 30.86 138.41 31.27C138.41 32.26 139.37 33.78 140.46 34.53L141.42 35.19L164.21 35.33L165.4 34.73C166.77 34.04 167.72 32.76 167.95 31.3C168.22 29.63 168.63 29.5 173.46 29.5C175.8 29.5 177.84 29.59 178 29.7C178.91 30.31 179.1 31.99 178.62 35.05C177.74 40.63 172.86 44.95 166.08 46.15C163.55 46.6 141.64 46.48 139.34 46.01C136.76 45.47 133.44 43.79 131.6 42.08ZM127.94 18.21C129.48 12.43 135.81 8.07 142.68 8.07C145.56 8.07 145.56 8.07 145.56 13.56C145.56 17.79 145.55 17.89 144.91 18.53C144.41 19.03 143.98 19.18 143.03 19.18C140.78 19.18 138.89 20.63 138.52 22.64C138.42 23.14 138.18 23.81 137.98 24.14C137.62 24.72 137.49 24.74 133 24.74C129.17 24.74 128.33 24.67 127.98 24.32C127.45 23.78 127.42 20.16 127.94 18.21ZM167.91 22.95C167.49 21.52 166.53 20.18 165.57 19.65C165.26 19.48 164.26 19.26 163.35 19.16C162.45 19.06 161.52 18.83 161.3 18.65C160.98 18.38 160.9 17.5 160.9 13.71C160.9 11.03 161.02 8.88 161.18 8.58C161.41 8.14 161.75 8.07 163.44 8.07C171.09 8.07 177.6 12.95 178.62 19.44C179.01 21.89 178.96 23.47 178.48 24.15C178.09 24.72 177.93 24.74 173.52 24.73C171.02 24.73 168.83 24.63 168.64 24.52C168.46 24.4 168.13 23.7 167.91 22.95Z"
       style="fill:#ffffff" />
  </g>
</svg>
