<?xml version="1.0" encoding="UTF-8" standalone="no"?>
<!-- Created with Inkscape (http://www.inkscape.org/) -->

<svg
   width="210mm"
   height="297mm"
   viewBox="0 0 210 297"
   version="1.1"
   id="svg5"
   inkscape:version="1.1.1 (3bf5ae0d25, 2021-09-20)"
   sodipodi:docname="skatepark.svg"
   xmlns:inkscape="http://www.inkscape.org/namespaces/inkscape"
   xmlns:sodipodi="http://sodipodi.sourceforge.net/DTD/sodipodi-0.dtd"
   xmlns="http://www.w3.org/2000/svg"
   xmlns:svg="http://www.w3.org/2000/svg">
  <sodipodi:namedview
     id="namedview7"
     pagecolor="#ffffff"
     bordercolor="#666666"
     borderopacity="1.0"
     inkscape:pageshadow="2"
     inkscape:pageopacity="0.0"
     inkscape:pagecheckerboard="0"
     inkscape:document-units="mm"
     showgrid="false"
     inkscape:zoom="0.47126122"
     inkscape:cx="397.86851"
     inkscape:cy="392.56359"
     inkscape:window-width="1366"
     inkscape:window-height="700"
     inkscape:window-x="0"
     inkscape:window-y="0"
     inkscape:window-maximized="1"
     inkscape:current-layer="layer1" />
  <defs
     id="defs2" />
  <g
     inkscape:label="Capa 1"
     inkscape:groupmode="layer"
     id="layer1">
    <path
       style="fill:#000000;stroke-width:0.264583"
       d="m 26.955027,213.82725 c -0.58208,-0.21307 -1.09417,-0.38919 -1.13798,-0.39138 -0.22638,-0.0113 -0.8464,-1.94619 -0.8464,-2.64132 0,-0.66782 0.10518,-0.80225 0.62765,-0.80225 0.52621,0 0.65462,0.16871 0.79457,1.04391 0.29989,1.87541 2.42456,2.54171 3.78065,1.18561 0.56729,-0.56729 0.65492,-0.8432 0.52519,-1.65365 -0.19036,-1.18917 -0.83624,-1.74758 -2.7014,-2.33552 -2.04674,-0.64518 -2.89968,-1.62182 -2.8749,-3.29185 0.0247,-1.66091 0.70982,-2.63214 2.19559,-3.11226 1.45675,-0.47073 2.82611,-0.19724 3.77788,0.75453 1.00273,1.00273 1.06846,2.38215 0.11351,2.38215 -0.49686,0 -0.67963,-0.17844 -0.81526,-0.79595 -0.44994,-2.04854 -3.83598,-1.63147 -3.83598,0.47249 0,1.16693 0.65841,1.81298 2.60615,2.55725 2.1527,0.82259 2.86823,1.50261 3.08148,2.92855 0.40907,2.73528 -2.45468,4.73782 -5.29075,3.69969 z m 18.01997,-0.28471 c -0.0883,-0.23019 -0.1606,-2.78029 -0.1606,-5.66691 0,-2.88661 0.0723,-5.43671 0.1606,-5.6669 0.0883,-0.23018 0.44162,-0.41851 0.78509,-0.41851 0.61352,0 0.6258,0.0507 0.6993,2.88606 l 0.0748,2.88606 2.06337,-2.88606 c 1.84143,-2.57563 2.14905,-2.88606 2.85989,-2.88606 0.9228,0 0.98321,-0.14611 -1.14078,2.75884 -0.84344,1.15356 -1.53353,2.20761 -1.53353,2.34235 0,0.13473 0.83344,1.71696 1.85209,3.51606 1.01864,1.79911 1.85208,3.33466 1.85208,3.41234 0,0.0777 -0.34235,0.14124 -0.76079,0.14124 -0.69346,0 -0.90613,-0.25953 -2.40294,-2.93242 l -1.64216,-2.93241 -0.63976,0.86715 c -0.54793,0.74268 -0.63977,1.16361 -0.63977,2.93242 0,2.00193 -0.0194,2.06526 -0.63315,2.06526 -0.34823,0 -0.70542,-0.18833 -0.79375,-0.41851 z m 18.62378,0.0878 c -5.3e-4,-0.1819 0.74356,-2.92001 1.65364,-6.08469 l 1.65469,-5.75396 0.97436,-7.9e-4 c 0.69988,-5.3e-4 1.01288,0.12971 1.11112,0.46229 0.38175,1.29251 3.0739,11.40275 3.0739,11.54391 0,0.0901 -0.35719,0.1639 -0.79375,0.1639 -0.48061,0 -0.79375,-0.13762 -0.79375,-0.34885 0,-0.19187 -0.18472,-0.97087 -0.41049,-1.73111 l -0.41048,-1.38225 -1.89098,0.0775 -1.89098,0.0775 -0.48613,1.65365 c -0.42613,1.44958 -0.56658,1.65364 -1.13812,1.65364 -0.35859,0 -0.65246,-0.14882 -0.65303,-0.33072 z m 5.76117,-4.49791 c -0.0645,-0.18191 -0.39725,-1.43206 -0.73938,-2.77813 -0.34212,-1.34607 -0.6907,-2.4474 -0.77461,-2.4474 -0.13323,0 -1.60031,4.93799 -1.60031,5.38643 0,0.0934 0.72712,0.16982 1.61581,0.16982 1.17883,0 1.58408,-0.0894 1.49849,-0.33072 z m 16.11209,4.65225 c -0.097,-0.097 -0.17639,-2.53779 -0.17639,-5.42396 v -5.24757 h -1.4552 c -1.37584,0 -1.45521,-0.0361 -1.45521,-0.66145 v -0.66146 h 3.70416 3.70417 v 0.66146 c 0,0.62538 -0.0794,0.66145 -1.45521,0.66145 h -1.45521 v 5.42396 5.42396 h -0.61736 c -0.33955,0 -0.69673,-0.0794 -0.79375,-0.17639 z m 16.756953,-5.90903 v -6.08541 h 3.04271 3.0427 v 0.65116 c 0,0.63638 -0.0525,0.65289 -2.3151,0.7276 l -2.3151,0.0764 -0.0782,1.78593 c -0.0886,2.02176 -0.41125,1.81037 2.79022,1.82786 1.55943,0.009 1.65364,0.0447 1.65364,0.63432 0,0.60058 -0.0862,0.62831 -2.18281,0.70212 l -2.18281,0.0768 v 2.11667 2.11666 l 2.44739,0.0761 c 2.40363,0.0747 2.4474,0.0877 2.4474,0.7276 v 0.65153 h -3.175 -3.175 z m 18.94601,5.66691 c -0.0883,-0.23019 -0.1606,-2.78029 -0.1606,-5.66691 0,-2.88661 0.0723,-5.43671 0.1606,-5.6669 0.212,-0.55246 3.69812,-0.58214 4.9897,-0.0425 1.66855,0.69716 2.28635,3.33658 1.19859,5.12067 -0.64182,1.05268 -1.4346,1.38246 -3.3234,1.38246 h -1.43799 v 2.64584 c 0,2.61429 -0.008,2.64583 -0.63315,2.64583 -0.34823,0 -0.70542,-0.18833 -0.79375,-0.41851 z m 4.43393,-6.47986 c 0.56559,-0.44489 0.69714,-0.76942 0.69714,-1.71979 0,-1.62737 -0.64331,-2.22976 -2.38125,-2.22976 h -1.32292 v 2.24896 2.24896 h 1.15495 c 0.76779,0 1.38863,-0.18382 1.85208,-0.54837 z m 13.13256,6.76687 c 0,-0.21718 2.54815,-9.14632 3.08119,-10.79698 0.39994,-1.2385 0.43534,-1.26912 1.37663,-1.19063 l 0.96614,0.0806 1.5036,5.55625 c 0.82699,3.05594 1.51159,5.77252 1.52136,6.03684 0.0137,0.37085 -0.14752,0.46148 -0.70597,0.39688 -0.65354,-0.0756 -0.76061,-0.24406 -1.10433,-1.73737 l -0.38064,-1.65364 h -1.9154 -1.9154 l -0.49232,1.65364 c -0.43389,1.45736 -0.57795,1.66359 -1.2136,1.73737 -0.39669,0.046 -0.72126,0.009 -0.72126,-0.0829 z m 5.82083,-4.67514 c 0,-0.4117 -1.38217,-5.54206 -1.46856,-5.45102 -0.21029,0.22162 -1.61654,5.49687 -1.49715,5.61625 0.29412,0.29412 2.96571,0.14528 2.96571,-0.16523 z m 14.81667,-1.2612 v -6.10299 h 2.27511 c 3.50224,0 4.60405,0.76595 4.60405,3.20059 0,1.13265 -0.56746,2.49705 -1.11891,2.69026 -0.2261,0.0792 -0.12831,0.28904 0.29842,0.64033 0.54521,0.44882 0.65984,0.83884 0.81288,2.76569 0.098,1.23375 0.26588,2.38511 0.37309,2.55857 0.13433,0.21736 -0.0518,0.31539 -0.59883,0.31539 -0.43656,0 -0.86979,-0.12303 -0.96273,-0.27341 -0.0929,-0.15038 -0.23627,-1.16324 -0.31853,-2.25081 -0.0822,-1.08757 -0.29305,-2.17365 -0.46844,-2.41351 -0.20671,-0.28269 -0.84142,-0.47945 -1.80415,-0.55928 l -1.48525,-0.12317 -0.0757,2.74394 -0.0757,2.74395 -0.72761,0.0837 -0.7276,0.0837 z m 4.34552,-0.85031 c 0.83966,-0.38257 1.32725,-1.73676 0.96675,-2.68494 -0.34585,-0.90965 -1.04366,-1.24483 -2.59164,-1.24483 -1.23608,0 -1.28095,0.0266 -1.22951,0.72761 0.0294,0.40018 0.0631,1.35268 0.0749,2.11667 l 0.0215,1.38906 h 1.04588 c 0.57524,0 1.3457,-0.13661 1.71214,-0.30357 z m 15.67462,6.74176 c -0.097,-0.097 -0.17639,-2.83545 -0.17639,-6.08542 v -5.90902 h 0.79375 0.79375 v 2.95799 2.958 l 2.02168,-2.84832 c 2.08455,-2.93691 2.33392,-3.17016 3.23133,-3.02245 0.46093,0.0759 0.29645,0.40517 -1.27833,2.55928 l -1.80734,2.4722 1.52331,2.68717 c 0.83783,1.47794 1.72245,3.07412 1.96583,3.54707 l 0.44252,0.85989 h -0.79117 c -0.73206,0 -0.91366,-0.21873 -2.43059,-2.92754 l -1.63943,-2.92755 -0.60939,0.74474 c -0.52441,0.64087 -0.61072,1.04914 -0.61891,2.92754 -0.009,2.10765 -0.0308,2.18281 -0.62687,2.18281 -0.33955,0 -0.69674,-0.0794 -0.79375,-0.17639 z M 53.148777,191.81049 c -3.504,-0.48939 -8.5269,-2.22221 -12.53384,-4.32396 -14.7692,-7.74686 -26.05375,-27.05323 -30.30169,-51.84214 -1.3346399,-7.78831 -1.5950999,-11.15682 -1.5957299,-20.6375 -8e-4,-10.77907 0.64648,-16.98287 2.6635999,-25.53229 4.61289,-19.551425 14.09169,-33.423164 27.05259,-39.590085 4.9332,-2.347264 6.29047,-2.506391 28.07653,-3.291686 17.44677,-0.628883 18.35982,-0.617674 21.56354,0.264727 14.271933,3.930919 24.558133,13.002896 32.421263,28.594127 11.76678,23.331506 13.60785,55.425087 4.58844,79.986087 -1.40793,3.83397 -4.82285,10.66367 -6.91755,13.83479 -6.75782,10.23052 -16.93959,17.56157 -27.335673,19.68214 -2.11373,0.43116 -33.34517,3.07195 -35.55403,3.00629 -0.73353,-0.0218 -1.69089,-0.0895 -2.12745,-0.1505 z m -1.63126,-16.61059 c 2.79998,-0.96666 4.56929,-2.1552 7.48406,-5.02739 7.48854,-7.37916 12.31924,-19.66627 14.01117,-35.63808 0.59646,-5.63055 0.39227,-17.66134 -0.39825,-23.46565 -3.38077,-24.822719 -14.81604,-44.882368 -27.39266,-48.051963 -11.23254,-2.830853 -23.73859,10.848102 -29.01146,31.732365 -3.11621,12.342378 -3.44281,26.611008 -0.89669,39.175418 2.88981,14.2604 8.74935,26.41192 16.53613,34.29267 4.16038,4.21057 8.66953,6.90706 12.75423,7.62707 1.97823,0.3487 4.79818,0.0858 6.91347,-0.64444 z m -14.44108,-24.74558 c -0.5451,-0.13702 -1.73572,-0.62384 -2.64583,-1.08181 -2.03086,-1.02195 -5.64465,-4.56928 -7.39299,-7.25701 -5.35251,-8.22843 -7.96563,-19.92179 -6.81418,-30.49248 1.01108,-9.28202 4.1377,-16.95823 8.76175,-21.511037 3.29826,-3.24745 6.80374,-4.081367 10.29294,-2.448575 6.45405,3.020216 12.11332,13.784982 13.87457,26.391442 0.4872,3.48726 0.53611,7.9234 0.10968,9.94787 -0.72885,3.46018 -2.6639,6.02613 -5.08717,6.74576 -1.58061,0.46939 -10.81723,0.56542 -12.3891,0.1288 -2.08994,-0.58053 -4.39775,-3.45028 -5.66689,-7.04675 -0.77421,-2.19395 -0.83539,-1.37638 -0.13425,1.79397 0.71983,3.25484 1.72769,6.05744 3.2538,9.04799 3.16915,6.2102 7.05069,9.64722 11.17876,9.89852 1.5815,0.0963 2.03569,0.0182 3.10885,-0.53449 0.69123,-0.35599 1.25563,-0.57414 1.25423,-0.48479 -0.001,0.0893 -0.61487,0.9777 -1.36327,1.97413 -1.52827,2.03476 -3.48632,3.7028 -5.22415,4.45039 -1.39776,0.6013 -3.7516,0.82122 -5.11675,0.47807 z m -7.69171,-29.14704 c -0.0845,-0.21107 -0.14716,-0.14838 -0.15985,0.15985 -0.0115,0.27891 0.051,0.43519 0.13896,0.34727 0.0879,-0.0879 0.0973,-0.31613 0.0209,-0.50712 z m -0.26459,-7.14375 c -0.0845,-0.21107 -0.14715,-0.14837 -0.15985,0.15985 -0.0115,0.27891 0.051,0.43519 0.13897,0.34727 0.0879,-0.0879 0.0973,-0.31613 0.0209,-0.50712 z m 0.85164,-2.76028 c 0.69446,-2.38095 2.29966,-4.82102 3.68297,-5.59848 0.96972,-0.54502 1.38153,-0.58746 5.69947,-0.58746 h 4.65423 l 0.43045,-0.65695 c 0.36912,-0.56334 0.38546,-0.84447 0.1147,-1.97314 -0.59628,-2.48557 -3.0635,-5.874092 -4.91762,-6.753926 -4.05106,-1.922357 -8.18332,3.677422 -10.02141,13.580426 -0.34711,1.87006 -0.55704,4.96672 -0.28053,4.13796 0.0486,-0.14552 0.33554,-1.11231 0.63774,-2.14843 z m 106.010483,77.53578 c -0.34784,-0.34784 -0.41577,-1.21097 -0.41577,-5.28236 0,-4.54066 0.0343,-4.88493 0.51177,-5.14048 0.32401,-0.1734 3.81473,-0.27389 9.51469,-0.27389 8.92076,0 9.00785,-0.005 9.5424,-0.57905 0.51904,-0.55713 0.53947,-0.89214 0.53947,-8.84465 0,-7.16139 0.0555,-8.32113 0.41577,-8.68136 0.34617,-0.34616 1.18777,-0.41577 5.02709,-0.41577 4.25853,0 4.65179,0.0405 5.14047,0.52917 0.50673,0.50672 0.52917,0.88194 0.52917,8.84854 0,8.29706 0.002,8.32047 0.58804,8.73125 0.50441,0.3533 1.8757,0.41187 9.64229,0.41187 h 9.05425 l 0.41188,0.58804 c 0.33251,0.47473 0.41187,1.43203 0.41187,4.96821 0,3.53618 -0.0794,4.49348 -0.41187,4.96821 l -0.41188,0.58804 h -24.83694 c -22.22624,0 -24.88063,-0.0437 -25.2527,-0.41577 z m -0.0926,-16.03569 c -0.50271,-0.50271 -0.46245,-21.20353 0.0421,-21.62223 0.25247,-0.20953 1.86293,-0.28078 5.21796,-0.23084 l 4.85279,0.0722 0.33438,0.66146 c 0.48072,0.95093 0.48071,19.68659 -1e-5,20.6375 l -0.3344,0.66146 -4.89483,0.0718 c -3.58395,0.0525 -4.98136,-0.0148 -5.21795,-0.25136 z m 40.16743,-0.19989 c -0.17506,-0.32712 -0.27389,-4.15213 -0.27389,-10.60073 0,-6.4486 0.0988,-10.27362 0.27389,-10.60073 0.25549,-0.47737 0.59957,-0.51177 5.11837,-0.51177 4.35723,0 4.88852,0.0487 5.28236,0.48385 0.39126,0.43234 0.43788,1.55287 0.43788,10.52446 0,8.65932 -0.0567,10.12151 -0.41187,10.62865 -0.40026,0.57145 -0.54928,0.58804 -5.28236,0.58804 -4.54451,0 -4.88881,-0.0342 -5.14438,-0.51177 z m -40.05267,-27.22417 c -0.37326,-0.41245 -0.43788,-1.18556 -0.43788,-5.23875 0,-3.34547 0.0941,-4.84901 0.3175,-5.07239 0.24245,-0.24246 6.21143,-0.3175 25.2527,-0.3175 h 24.93521 l 0.41188,0.58804 c 0.33304,0.47549 0.41187,1.43761 0.41187,5.02708 0,4.08627 -0.0421,4.4811 -0.52916,4.96821 -0.52161,0.52161 -0.88195,0.52917 -25.2267,0.52917 -23.59056,0 -24.71716,-0.0217 -25.13542,-0.48386 z m -0.0221,-16.0715 c -0.66687,-0.66687 -0.60142,-10.0531 0.0855,-12.26016 1.38689,-4.4561 5.76396,-8.20611 11.0081,-9.43109 2.59379,-0.60589 6.36688,-0.55201 8.96906,0.12807 4.74318,1.23963 8.47419,4.47945 10.02521,8.70538 0.46927,1.27858 0.56677,2.27043 0.66147,6.72933 0.0958,4.51067 0.0519,5.32009 -0.31958,5.88698 l -0.43064,0.65726 h -4.7414 c -5.88929,0 -5.56515,0.25923 -5.56515,-4.45065 0,-3.63136 -0.27241,-4.58863 -1.63114,-5.73192 -2.0434,-1.71941 -4.97041,-1.27181 -6.68689,1.02257 -0.4747,0.63453 -0.56268,1.22766 -0.6778,4.56947 -0.11739,3.40772 -0.19015,3.88254 -0.64589,4.21541 -0.7894,0.57657 -9.46872,0.54147 -10.05084,-0.0406 z m 0.17228,-27.24818 c -0.57148,-0.40028 -0.58804,-0.54917 -0.58804,-5.285571 0,-4.822396 0.007,-4.877971 0.62119,-5.28071 0.54981,-0.360248 3.45591,-0.398957 25.28908,-0.33683 24.0707,0.06849 24.67698,0.08263 25.04339,0.583784 0.28911,0.395434 0.3755,1.539526 0.3755,4.972963 0,4.381864 -0.0113,4.470664 -0.64943,5.108804 l -0.64943,0.64943 h -24.42718 c -21.68023,0 -24.49324,-0.0463 -25.01515,-0.41187 z m 11.18585,-16.153077 c -2.5793,-0.532304 -5.89759,-2.215501 -7.7364,-3.924284 -2.81907,-2.619708 -4.03756,-5.511331 -4.03756,-9.581557 0,-3.008661 -0.0116,-3.002123 5.31485,-3.002123 3.78646,0 4.19813,0.04668 4.83592,0.54837 0.42639,0.335396 0.69714,0.809503 0.69714,1.220747 0,0.992802 0.9539,2.51468 2.0449,3.262511 l 0.95837,0.656913 11.39681,0.07276 11.3968,0.07276 1.18849,-0.601927 c 1.37168,-0.694709 2.32105,-1.970993 2.55516,-3.435046 0.26634,-1.665642 0.672,-1.797661 5.50949,-1.793039 2.33234,0.0021 4.37161,0.09152 4.53173,0.198438 0.91203,0.608983 1.10794,2.291609 0.62334,5.353761 -0.88297,5.579354 -5.76273,9.898862 -12.53858,11.099012 -2.52908,0.447955 -24.44101,0.327257 -26.74046,-0.147296 z M 135.98226,64.320285 c -0.53578,-0.535782 -0.56354,-4.16505 -0.0467,-6.106155 1.54062,-5.786122 7.87506,-10.146821 14.7395,-10.146821 2.88402,0 2.88309,-0.0018 2.88309,5.494856 0,4.232595 -0.013,4.33174 -0.64943,4.968211 -0.50307,0.503076 -0.92636,0.649433 -1.87824,0.649433 -2.24869,0 -4.14335,1.45302 -4.51383,3.461678 -0.0917,0.497171 -0.33356,1.171837 -0.53746,1.499259 -0.36142,0.580358 -0.48641,0.595313 -4.97594,0.595313 -3.83378,0 -4.67486,-0.06965 -5.02099,-0.415774 z m 40.6617,0.198233 c -0.1814,-0.115189 -0.51176,-0.822095 -0.73413,-1.5709 -0.42307,-1.424638 -1.37618,-2.768872 -2.33803,-3.297465 -0.31172,-0.171312 -1.30982,-0.391265 -2.21798,-0.488786 -0.90817,-0.09752 -1.8309,-0.326435 -2.05052,-0.508703 -0.3281,-0.272296 -0.39931,-1.154473 -0.39931,-4.946605 0,-2.675403 0.11511,-4.830306 0.27389,-5.126977 0.2335,-0.4363 0.56721,-0.511773 2.26287,-0.511773 7.64776,0 14.16172,4.881748 15.18102,11.377083 0.38399,2.446941 0.33771,4.024458 -0.13799,4.703628 -0.39868,0.569182 -0.55776,0.587909 -4.96094,0.583988 -2.50199,-0.0021 -4.69748,-0.0983 -4.87888,-0.21349 z"
       id="path21" />
  </g>
</svg>
